HIERARCHY
ROOT root
{
	OFFSET	0	13.1	24.9
	CHANNELS 6  Xposition Yposition Zposition Xrotation Yrotation Zrotation
	JOINT spine_1
	{
		OFFSET	0	9.99999	0
		CHANNELS 3  Xrotation Yrotation Zrotation
		JOINT spine_2
		{
			OFFSET	0	112	-10
			CHANNELS 3  Xrotation Yrotation Zrotation
			JOINT spine_3
			{
				OFFSET	0	206.5	19.3
				CHANNELS 3  Xrotation Yrotation Zrotation
				JOINT spine_4
				{
					OFFSET	0	110.4	14.6
					CHANNELS 3  Xrotation Yrotation Zrotation
					JOINT neck_1
					{
						OFFSET	0	71.8	-50.3
						CHANNELS 3  Xrotation Yrotation Zrotation
						JOINT neck_2
						{
							OFFSET	0	86.2	-25.8
							CHANNELS 3  Xrotation Yrotation Zrotation
							JOINT head_ee
							{
								OFFSET	0	179.8	-8.7
								CHANNELS 3  Xrotation Yrotation Zrotation
								End Site
								{
									OFFSET	1	0	0
								}
							}
						}
					}
					JOINT left_clavicle
					{
						OFFSET	-43.2	22.4	-70.8
						CHANNELS 3  Xrotation Yrotation Zrotation
						JOINT left_shoulder
						{
							OFFSET	-93.9	-5.79999	48.7
							CHANNELS 3  Xrotation Yrotation Zrotation
							JOINT left_elbow
							{
								OFFSET	-291.4	-30.8	15.2
								CHANNELS 3  Xrotation Yrotation Zrotation
								JOINT left_lowarm_twist
								{
									OFFSET	-110.7	-3.89999	13.6
									CHANNELS 3  Xrotation Yrotation Zrotation
									JOINT left_hand
									{
										OFFSET	-110.7	-3.89999	13.6
										CHANNELS 3  Xrotation Yrotation Zrotation
										JOINT left_ee
										{
											OFFSET	-80.8	-5.10001	12.1
											CHANNELS 3  Xrotation Yrotation Zrotation
											End Site
											{
												OFFSET	1	0	0
											}
										}
									}
								}
							}
						}
					}
					JOINT right_clavicle
					{
						OFFSET	43.2	22.4	-70.8
						CHANNELS 3  Xrotation Yrotation Zrotation
						JOINT right_shoulder
						{
							OFFSET	93.9	-5.79999	48.7
							CHANNELS 3  Xrotation Yrotation Zrotation
							JOINT right_elbow
							{
								OFFSET	291.4	-30.8	15.2
								CHANNELS 3  Xrotation Yrotation Zrotation
								JOINT right_lowarm_twist
								{
									OFFSET	110.7	-3.89999	13.6
									CHANNELS 3  Xrotation Yrotation Zrotation
									JOINT right_hand
									{
										OFFSET	110.7	-3.89999	13.6
										CHANNELS 3  Xrotation Yrotation Zrotation
										JOINT right_ee
										{
											OFFSET	80.8	-5.10001	12.1
											CHANNELS 3  Xrotation Yrotation Zrotation
											End Site
											{
												OFFSET	1	0	0
											}
										}
									}
								}
							}
						}
					}
				}
			}
		}
	}
	JOINT left_hip
	{
		OFFSET	-82.8	-127.5	0.300001
		CHANNELS 3  Xrotation Yrotation Zrotation
		JOINT left_knee
		{
			OFFSET	-28.2	-396.7	2.2
			CHANNELS 3  Xrotation Yrotation Zrotation
			JOINT left_ankle
			{
				OFFSET	-11.7	-411.3	35.4
				CHANNELS 3  Xrotation Yrotation Zrotation
				JOINT left_toes
				{
					OFFSET	0	-60	-88.6
					CHANNELS 3  Xrotation Yrotation Zrotation
					JOINT left_foot_ee
					{
						OFFSET	-22.5	-16.5	-42.2
						CHANNELS 3  Xrotation Yrotation Zrotation
						End Site
						{
							OFFSET	1	0	0
						}
					}
				}
			}
		}
	}
	JOINT right_hip
	{
		OFFSET	82.8	-127.5	0.300001
		CHANNELS 3  Xrotation Yrotation Zrotation
		JOINT right_knee
		{
			OFFSET	28.2	-396.7	2.2
			CHANNELS 3  Xrotation Yrotation Zrotation
			JOINT right_ankle
			{
				OFFSET	11.7	-411.3	35.4
				CHANNELS 3  Xrotation Yrotation Zrotation
				JOINT right_toes
				{
					OFFSET	0	-60	-88.6
					CHANNELS 3  Xrotation Yrotation Zrotation
					JOINT right_foot_ee
					{
						OFFSET	22.5	-16.5	-42.2
						CHANNELS 3  Xrotation Yrotation Zrotation
						End Site
						{
							OFFSET	1	0	0
						}
					}
				}
			}
		}
	}
}
MOTION
Frames: 13
Frame Time: 0.02
2125.15 726.956 -1616.4 -11.4336 56.0608 4.6672 5.13298 0.525728 3.99356 5.14181 0.270752 4.01886 5.15286 -0.219763 4.02197 5.13054 0.417668 4.00628 -9.35116 18.5772 -4.36224 -9.7122 37.8616 0.43714 -0.0 0.0 -0.0 -8.92005 18.1906 -11.7343 -25.3524 -0.522322 71.4163 1.66187 -39.4594 0.596045 23.1178 0.227338 -2.92437 -0.694643 28.7159 7.4474 -0.0 0.0 -0.0 12.6274 23.0228 -25.1307 -19.9351 48.6459 -74.9406 0.773003 20.9529 -0.142941 32.6375 0.0226684 4.11331 1.47959 -29.3705 -19.7591 0.0 0.0 0.0 23.1871 69.1184 -27.1794 -22.1383 0.264109 3.36594 17.3431 -30.0862 -3.01495 11.779 -0.0 -0.0 -0.0 0.0 -0.0 7.94773 29.5872 -5.4664 -2.03027 -0.0782546 -0.301734 32.8654 -1.26892 4.19971 1.2453 -0.0 -0.0 0.0 0.0 0.0 
2127.37 728.722 -1614.04 -11.3491 55.7275 4.58 5.21424 0.404313 4.01179 5.22318 0.148425 4.02935 5.22543 -0.337663 4.01794 5.20303 0.300605 4.02087 -10.0908 18.1537 -4.49667 -10.565 37.1999 0.475741 -0.0 0.0 -0.0 -8.64207 17.9067 -11.3845 -24.9297 -0.683001 71.1695 1.59183 -38.2546 0.552102 23.7266 0.217296 -3.00149 -0.676734 28.5404 7.4759 -0.0 0.0 -0.0 12.2441 22.2815 -24.3143 -19.2707 48.6277 -75.1469 0.777723 21.0697 -0.144634 32.8803 0.0316141 4.14303 1.47753 -29.313 -19.7328 0.0 0.0 0.0 21.3159 70.0326 -25.7298 -21.2504 0.278682 3.23047 17.1811 -30.4845 -3.00542 11.5783 -0.0 -0.0 -0.0 0.0 -0.0 8.96554 29.1229 -5.66349 -3.79424 -0.137519 -0.565955 33.5946 -0.646375 4.2767 0.988679 -0.0 -0.0 0.0 0.0 0.0 
2125.83 725.427 -1609.89 -11.9889 56.2548 5.23305 5.30749 0.349389 3.99916 5.31638 0.0944124 4.01326 5.31465 -0.38324 3.99607 5.29246 0.252152 4.00646 -10.9475 18.0496 -4.58804 -11.5736 37.1057 0.694198 -0.0 0.0 -0.0 -8.52493 17.7707 -11.242 -24.0168 -0.314336 71.1344 1.55533 -37.6104 0.529664 24.161 0.209631 -3.05644 -0.646109 28.7596 7.72811 -0.0 0.0 -0.0 12.3457 21.5581 -24.6097 -19.9425 48.5713 -75.182 0.774553 20.9913 -0.143496 32.9787 0.0352768 4.15506 1.44499 -29.4273 -19.5741 0.0 0.0 0.0 23.278 71.1639 -27.1389 -20.9968 0.282459 3.19173 17.0339 -30.7333 -2.99214 11.479 -0.0 -0.0 -0.0 0.0 -0.0 9.41269 28.7902 -5.79795 -3.66538 -0.133466 -0.546594 35.4579 1.15484 4.47275 0.763856 -0.0 -0.0 0.0 0.0 0.0 
2123.64 720.672 -1612.19 -12.004 56.1054 5.3409 5.41699 0.593541 3.99271 5.4258 0.338483 4.02232 5.44092 -0.132473 4.03434 5.41857 0.505817 4.00474 -10.4595 17.6265 -5.05148 -10.9569 36.5872 -0.0836399 -0.0 0.0 -0.0 -8.38025 17.3373 -11.1585 -24.3627 -1.33163 70.4976 1.51194 -36.8297 0.503418 24.3285 0.206562 -3.07763 -0.644906 28.7941 7.74809 -0.0 0.0 -0.0 12.4871 21.7973 -24.9158 -20.531 48.8049 -75.4174 0.754896 20.5034 -0.136533 33.5988 0.0588275 4.23074 1.33789 -29.2774 -18.9204 0.0 0.0 0.0 24.8413 71.9721 -29.0186 -20.6673 0.287109 3.1414 17.6364 -30.9471 -3.09679 11.8253 -0.0 -0.0 -0.0 0.0 -0.0 9.73949 28.5351 -6.23977 -5.31248 -0.181988 -0.794706 34.5671 0.624804 4.38204 0.889477 -0.0 -0.0 0.0 0.0 0.0 
2122.45 721.948 -1611.0 -13.0656 55.494 6.44507 5.58786 0.635977 3.94451 5.59643 0.383892 3.97691 5.61423 -0.0698616 3.99476 5.5924 0.56141 3.95579 -10.4058 17.5336 -5.17249 -10.885 36.4889 -0.25144 -0.0 0.0 -0.0 -8.41001 17.4248 -11.1766 -24.3436 -1.86383 70.1069 1.51626 -36.908 0.506006 24.5126 0.203119 -3.10089 -0.621303 28.7614 7.86362 -0.0 0.0 -0.0 12.3986 20.7573 -24.7953 -21.2842 48.4362 -75.2756 0.763284 20.712 -0.139485 33.9948 0.0742941 4.27893 1.2969 -29.1666 -18.6564 0.0 0.0 0.0 27.5138 72.8859 -30.92 -20.5536 0.288647 3.12401 17.0292 -30.7409 -2.99169 11.4911 -0.0 -0.0 -0.0 0.0 -0.0 9.71354 28.2177 -6.16592 -4.9002 -0.170513 -0.732476 37.1367 2.87752 4.6483 0.596948 -0.0 -0.0 0.0 0.0 0.0 
2118.51 721.097 -1608.22 -13.2812 55.6619 6.54197 5.62711 0.66598 3.83938 5.63521 0.420508 3.87391 5.65516 -0.0189082 3.89658 5.63447 0.596258 3.85081 -9.19734 16.5856 -4.76224 -9.42709 34.3787 -0.576139 -0.0 0.0 -0.0 -8.22329 17.1315 -10.972 -26.1369 -4.35476 69.6916 1.59278 -38.2711 0.552688 25.1993 0.18962 -3.18756 -0.451073 28.6751 8.7577 -0.0 0.0 -0.0 12.4311 20.2338 -24.9095 -21.8989 48.5344 -75.2223 0.655191 17.9816 -0.103665 34.1024 0.0785555 4.29201 1.14265 -29.0395 -17.7405 0.0 0.0 0.0 26.9892 73.3924 -30.7442 -20.9222 0.283536 3.18035 17.9565 -31.3503 -3.16495 11.8356 -0.0 -0.0 -0.0 0.0 -0.0 8.79413 26.9498 -4.93137 -6.78869 -0.219396 -1.01816 33.3608 2.38959 4.27948 0.19471 -0.0 -0.0 0.0 0.0 0.0 
2115.1 721.195 -1607.85 -13.0392 55.6822 6.39918 5.58675 0.703775 3.82152 5.59476 0.459361 3.85849 5.61738 0.0189615 3.88565 5.59687 0.631931 3.83404 -9.67827 16.4667 -4.41466 -9.9829 33.9472 -0.0987068 -0.0 0.0 -0.0 -8.41843 17.6515 -11.1103 -26.3598 -6.02535 69.0993 1.60369 -38.4615 0.55946 25.7796 0.177402 -3.26069 -0.244247 28.886 9.96537 -0.0 0.0 -0.0 12.555 17.643 -25.3589 -23.465 48.0273 -74.2045 0.613174 16.8962 -0.0910727 33.7283 0.0638495 4.24652 0.765989 -29.1678 -15.647 0.0 0.0 0.0 26.3573 73.6695 -30.6846 -20.7782 0.285576 3.15834 20.1386 -31.168 -3.49655 11.7182 -0.0 -0.0 -0.0 0.0 -0.0 8.68591 24.0773 -5.65803 -7.15786 -0.22785 -1.07418 32.9908 1.57042 4.23405 -0.478376 0.0 0.0 0.0 0.0 0.0 
2113.0 720.39 -1607.69 -12.3999 55.9642 5.96391 5.48696 0.722562 3.82418 5.49497 0.477942 3.86233 5.5191 0.0303432 3.89162 5.49855 0.644113 3.83815 -10.4402 16.3026 -3.59141 -10.8563 33.1344 0.916124 -0.0 0.0 -0.0 -8.63044 17.9658 -11.3442 -26.8967 -7.53134 69.0491 1.6722 -39.6338 0.602625 26.0668 0.17108 -3.29684 -0.0820805 28.6382 10.7661 -0.0 0.0 -0.0 12.478 15.7349 -25.2683 -24.2809 48.2948 -73.6352 0.613271 16.8987 -0.0911008 33.4671 0.0537562 4.21469 0.65033 -28.9359 -14.9287 0.0 0.0 0.0 26.2005 73.6634 -31.0008 -20.7054 0.286585 3.14722 19.7776 -31.2587 -3.44545 11.5691 -0.0 -0.0 -0.0 0.0 -0.0 8.52506 24.4864 -5.90093 -8.14762 -0.248731 -1.22463 33.3232 2.57926 4.27776 -1.0025 0.0 0.0 0.0 0.0 0.0 
2112.43 722.565 -1606.58 -11.8716 55.7231 5.5012 5.39409 0.705272 3.78912 5.40196 0.462913 3.82624 5.42514 0.0132042 3.85408 5.40495 0.621272 3.80378 -11.5202 16.7236 -2.96337 -12.1241 33.5841 2.02264 -0.0 0.0 -0.0 -9.20449 18.8451 -11.9499 -26.6699 -7.85053 69.2874 1.78824 -41.532 0.67812 26.3805 0.163969 -3.33627 0.0614796 28.3332 11.4525 -0.0 0.0 -0.0 12.4966 13.8474 -25.37 -25.4823 48.2194 -72.2787 0.61126 16.8465 -0.0905171 33.2542 0.0456367 4.18871 0.466166 -29.0245 -13.9281 0.0 0.0 0.0 26.0414 73.8898 -31.0885 -20.9582 0.283018 3.18585 20.5087 -31.3425 -3.56152 11.4099 -0.0 -0.0 -0.0 0.0 -0.0 8.65801 23.421 -5.64456 -9.62295 -0.275022 -1.44948 32.4158 2.57901 4.1859 -0.327446 0.0 0.0 0.0 0.0 0.0 
2112.74 722.376 -1606.74 -11.4965 55.936 5.27387 5.36788 0.711706 3.80013 5.37579 0.468634 3.83764 5.39946 0.015833 3.86608 5.37915 0.625758 3.81521 -12.3173 16.7405 -2.54365 -13.0357 33.3947 2.70178 -0.0 0.0 -0.0 -9.58641 18.9549 -12.5268 -26.3924 -8.11113 69.4038 1.8745 -42.8746 0.736072 26.6361 0.158015 -3.36838 0.122074 28.4922 11.8429 -0.0 0.0 -0.0 12.6007 13.2403 -25.6222 -25.8676 48.3485 -72.0141 0.608154 16.7657 -0.089619 32.9747 0.0351282 4.15458 0.307133 -29.0035 -13.0387 0.0 0.0 0.0 25.8752 73.8692 -31.2645 -21.0062 0.282322 3.19317 23.1022 -31.1189 -3.93649 11.7154 -0.0 -0.0 -0.0 0.0 -0.0 8.40509 22.569 -5.78646 -9.99842 -0.280787 -1.50681 32.646 2.41891 4.20766 -0.955636 0.0 0.0 0.0 0.0 0.0 
2111.77 720.197 -1607.07 -11.7972 54.5352 5.36963 5.44662 0.777784 3.76811 5.45436 0.536612 3.80988 5.48228 0.0923197 3.84633 5.46232 0.698177 3.78365 -11.5587 16.8832 -2.32213 -12.1759 33.48 2.7006 -0.0 0.0 -0.0 -9.60378 19.5621 -12.3139 -26.9215 -7.49795 69.278 1.87963 -42.9526 0.739562 26.3556 0.164541 -3.33315 0.234493 27.9071 12.2707 -0.0 0.0 -0.0 12.5197 12.0672 -25.4524 -25.9144 49.0937 -72.128 0.609263 16.7945 -0.0899393 32.3022 0.0105206 4.07222 0.000753062 -28.6902 -11.2406 0.0 0.0 0.0 21.4681 71.2989 -26.642 -23.327 0.241317 3.54691 24.5981 -31.4762 -4.17135 11.2772 -0.0 -0.0 -0.0 0.0 -0.0 7.40521 21.3261 -5.06682 -7.19673 -0.228719 -1.08008 30.3261 2.2674 3.96479 -2.71588 0.0 0.0 0.0 0.0 0.0 
2111.22 722.337 -1604.67 -12.6519 55.1131 6.12337 5.53196 0.727569 3.78234 5.53979 0.485595 3.82089 5.56416 0.0457677 3.85131 5.54406 0.652992 3.7959 -12.252 17.4279 -2.77788 -13.0348 34.843 2.70251 -0.0 0.0 -0.0 -9.53501 19.9318 -12.0567 -24.9876 -7.26032 69.0872 1.71472 -40.3418 0.629947 26.1016 0.170302 -3.30121 0.316414 26.1474 12.1397 -0.0 0.0 -0.0 11.9894 11.3135 -24.2495 -26.1773 51.1336 -71.8958 0.693095 18.9494 -0.115671 31.7971 -0.00732239 4.01018 0.0478875 -28.4094 -11.4035 0.0 0.0 0.0 24.979 70.9801 -29.0299 -24.2709 0.220544 3.69028 25.2541 -31.3741 -4.25818 11.3503 -0.0 -0.0 -0.0 0.0 -0.0 7.04073 20.5668 -4.70704 -6.17966 -0.204661 -0.925856 30.4976 5.47545 4.0221 -3.28672 0.0 0.0 0.0 0.0 0.0 
2106.41 722.614 -1606.69 -11.4878 54.824 5.12279 5.46095 0.722706 3.80566 5.46888 0.479261 3.84386 5.49308 0.0320216 3.87345 5.47273 0.642906 3.81993 -11.9505 17.3681 -2.168 -12.6694 34.3282 3.14965 -0.0 0.0 -0.0 -9.64803 20.4759 -12.0181 -25.4358 -5.09159 69.311 1.84562 -42.4314 0.716502 24.6011 0.20144 -3.11206 0.305631 26.1784 12.0887 -0.0 0.0 -0.0 11.5463 9.39341 -23.2542 -27.4415 51.0016 -71.1496 0.784366 21.2336 -0.147031 32.0175 0.000396578 4.03727 0.162606 -29.0707 -12.2626 0.0 0.0 0.0 20.8888 69.4778 -26.0987 -25.1353 0.199453 3.82124 28.5795 -31.4079 -4.71179 10.5719 -0.0 -0.0 -0.0 0.0 -0.0 6.71678 21.7987 -4.6903 -7.32174 -0.231487 -1.09906 34.9008 4.59999 4.45853 -5.4338 0.0 0.0 0.0 0.0 0.0 
